{
  "accessors": [
    {
      "bufferView": 1,
      "componentType": 5126,
      "count": 18144,
      "max": [
        3.2822394371032715,
        1.9971613883972168,
        2.9703497886657715
      ],
      "min": [
        -3.6762895584106445,
        -1.8429334163665771,
        -3.3779144287109375
      ],
      "type": "VEC3"
    },
    {
      "bufferView": 1,
      "byteOffset": 217728,
      "componentType": 5126,
      "count": 18144,
      "max": [
        1.0,
        1.0,
        1.0
      ],
      "min": [
        -1.0,
        -1.0,
        -1.0
      ],
      "type": "VEC3"
    },
    {
      "bufferView": 0,
      "componentType": 5125,
      "count": 238608,
      "type": "SCALAR"
    },
    {
      "bufferView": 1,
      "byteOffset": 435456,
      "componentType": 5126,
      "count": 29832,
      "max": [
        4.4589996337890625,
        3.4916999340057373,
        3.587899923324585
      ],
      "min": [
        -4.817899703979492,
        -3.0850000381469727,
        -4.313399791717529
      ],
      "type": "VEC3"
    },
    {
      "bufferView": 1,
      "byteOffset": 793440,
      "componentType": 5126,
      "count": 29832,
      "max": [
        1.0,
        1.0,
        1.0
      ],
      "min": [
        -1.0,
        -1.0,
        -1.0
      ],
      "type": "VEC3"
    },
    {
      "bufferView": 0,
      "byteOffset": 954432,
      "componentType": 5125,
      "count": 173712,
      "type": "SCALAR"
    },
    {
      "bufferView": 1,
      "byteOffset": 1151424,
      "componentType": 5126,
      "count": 15708,
      "max": [
        4.146699905395508,
        2.9867990016937256,
        2.8123505115509033
      ],
      "min": [
        -4.680099964141846,
        -2.5126118659973145,
        -3.6517109870910645
      ],
      "type": "VEC3"
    },
    {
      "bufferView": 1,
      "byteOffset": 1339920,
      "componentType": 5126,
      "count": 15708,
      "max": [
        1.0,
        1.0,
        1.0
      ],
      "min": [
        -1.0,
        -1.0,
        -1.0
      ],
      "type": "VEC3"
    },
    {
      "bufferView": 0,
      "byteOffset": 1649280,
      "componentType": 5125,
      "count": 131472,
      "type": "SCALAR"
    }
  ],
  "asset": {
    "extras": {
      "author": "Justus Mutanen (https://sketchfab.com/justusmutanen)",
      "license": "CC-BY-4.0 (http://creativecommons.org/licenses/by/4.0/)",
      "source": "https://sketchfab.com/3d-models/sucrose-molecule-adc74f80cf52473cb42ec0e999de7f77",
      "title": "Sucrose Molecule"
    },
    "generator": "Sketchfab-12.68.0",
    "version": "2.0"
  },
  "bufferViews": [
    {
      "buffer": 0,
      "byteLength": 2175168,
      "name": "floatBufferViews",
      "target": 34963
    },
    {
      "buffer": 0,
      "byteLength": 1528416,
      "byteOffset": 2175168,
      "byteStride": 12,
      "name": "floatBufferViews",
      "target": 34962
    }
  ],
  "buffers": [
    {
      "byteLength": 3703584,
      "uri": "scene.bin"
    }
  ],
  "materials": [
    {
      "doubleSided": true,
      "name": "k909090",
      "pbrMetallicRoughness": {
        "baseColorFactor": [
          0.566,
          0.566,
          0.566,
          1.0
        ],
        "metallicFactor": 0.0,
        "roughnessFactor": 0.574428
      }
    },
    {
      "doubleSided": true,
      "name": "kffffff",
      "pbrMetallicRoughness": {
        "metallicFactor": 0.0,
        "roughnessFactor": 0.574428
      }
    },
    {
      "doubleSided": true,
      "name": "kff0d0d",
      "pbrMetallicRoughness": {
        "baseColorFactor": [
          1.0,
          0.055,
          0.055,
          1.0
        ],
        "metallicFactor": 0.0,
        "roughnessFactor": 0.574428
      }
    }
  ],
  "meshes": [
    {
      "name": "Object_0",
      "primitives": [
        {
          "attributes": {
            "NORMAL": 1,
            "POSITION": 0
          },
          "indices": 2,
          "material": 0,
          "mode": 4
        }
      ]
    },
    {
      "name": "Object_1",
      "primitives": [
        {
          "attributes": {
            "NORMAL": 4,
            "POSITION": 3
          },
          "indices": 5,
          "material": 1,
          "mode": 4
        }
      ]
    },
    {
      "name": "Object_2",
      "primitives": [
        {
          "attributes": {
            "NORMAL": 7,
            "POSITION": 6
          },
          "indices": 8,
          "material": 2,
          "mode": 4
        }
      ]
    }
  ],
  "nodes": [
    {
      "children": [
        1
      ],
      "matrix": [
        1.0,
        0.0,
        0.0,
        0.0,
        0.0,
        2.220446049250313e-16,
        -1.0,
        0.0,
        0.0,
        1.0,
        2.220446049250313e-16,
        0.0,
        0.0,
        0.0,
        0.0,
        1.0
      ],
      "name": "Sketchfab_model"
    },
    {
      "children": [
        2
      ],
      "name": "root"
    },
    {
      "children": [
        3
      ],
      "matrix": [
        1.0,
        0.0,
        0.0,
        0.0,
        0.0,
        2.220446049250313e-16,
        1.0,
        0.0,
        0.0,
        -1.0,
        2.220446049250313e-16,
        0.0,
        0.0,
        0.0,
        0.0,
        1.0
      ],
      "name": "GLTF_SceneRootNode"
    },
    {
      "children": [
        4,
        5,
        6
      ],
      "matrix": [
        1.0,
        0.0,
        0.0,
        0.0,
        0.0,
        -1.685873969314855e-07,
        0.9999999999999858,
        0.0,
        0.0,
        -0.9999999999999858,
        -1.685873969314855e-07,
        0.0,
        0.0,
        0.0,
        0.0,
        1.0
      ],
      "name": "sucrose_0"
    },
    {
      "mesh": 0,
      "name": "Object_4"
    },
    {
      "mesh": 1,
      "name": "Object_5"
    },
    {
      "mesh": 2,
      "name": "Object_6"
    }
  ],
  "scene": 0,
  "scenes": [
    {
      "name": "Sketchfab_Scene",
      "nodes": [
        0
      ]
    }
  ]
}
