{
  "accessors": [
    {
      "bufferView": 1,
      "componentType": 5126,
      "count": 41730,
      "max": [
        -5.6570000648498535,
        1.250999927520752,
        14.070000648498535
      ],
      "min": [
        -35.30799865722656,
        -20.243000030517578,
        -10.04800033569336
      ],
      "type": "VEC3"
    },
    {
      "bufferView": 1,
      "byteOffset": 500760,
      "componentType": 5126,
      "count": 41730,
      "max": [
        1.0,
        1.0,
        1.0
      ],
      "min": [
        -1.0,
        -1.0,
        -1.0
      ],
      "type": "VEC3"
    },
    {
      "bufferView": 0,
      "componentType": 5125,
      "count": 249600,
      "type": "SCALAR"
    },
    {
      "bufferView": 1,
      "byteOffset": 1001520,
      "componentType": 5126,
      "count": 65532,
      "max": [
        -1.680999994277954,
        3.1700000762939453,
        4.446000099182129
      ],
      "min": [
        -34.656002044677734,
        -20.233001708984375,
        -11.218999862670898
      ],
      "type": "VEC3"
    },
    {
      "bufferView": 1,
      "byteOffset": 1787904,
      "componentType": 5126,
      "count": 65532,
      "max": [
        1.0,
        1.0,
        1.0
      ],
      "min": [
        -1.0,
        -1.0,
        -1.0
      ],
      "type": "VEC3"
    },
    {
      "bufferView": 0,
      "byteOffset": 998400,
      "componentType": 5125,
      "count": 391815,
      "type": "SCALAR"
    },
    {
      "bufferView": 1,
      "byteOffset": 2574288,
      "componentType": 5126,
      "count": 65532,
      "max": [
        -7.572000503540039,
        1.0720000267028809,
        12.868000030517578
      ],
      "min": [
        -33.04999923706055,
        -22.638999938964844,
        -10.460999488830566
      ],
      "type": "VEC3"
    },
    {
      "bufferView": 1,
      "byteOffset": 3360672,
      "componentType": 5126,
      "count": 65532,
      "max": [
        1.0,
        1.0,
        1.0
      ],
      "min": [
        -1.0,
        -1.0,
        -1.0
      ],
      "type": "VEC3"
    },
    {
      "bufferView": 0,
      "byteOffset": 2565660,
      "componentType": 5125,
      "count": 391683,
      "type": "SCALAR"
    },
    {
      "bufferView": 1,
      "byteOffset": 4147056,
      "componentType": 5126,
      "count": 37893,
      "max": [
        -8.607000350952148,
        3.2680001258850098,
        14.314000129699707
      ],
      "min": [
        -29.18600082397461,
        -11.114999771118164,
        -2.8580000400543213
      ],
      "type": "VEC3"
    },
    {
      "bufferView": 1,
      "byteOffset": 4601772,
      "componentType": 5126,
      "count": 37893,
      "max": [
        1.0,
        1.0,
        1.0
      ],
      "min": [
        -1.0,
        -1.0,
        -1.0
      ],
      "type": "VEC3"
    },
    {
      "bufferView": 0,
      "byteOffset": 4132392,
      "componentType": 5125,
      "count": 226422,
      "type": "SCALAR"
    },
    {
      "bufferView": 1,
      "byteOffset": 5056488,
      "componentType": 5126,
      "count": 65532,
      "max": [
        -1.0069999694824219,
        3.736999988555908,
        13.493999481201172
      ],
      "min": [
        -32.5260009765625,
        -21.85099983215332,
        -11.975220680236816
      ],
      "type": "VEC3"
    },
    {
      "bufferView": 1,
      "byteOffset": 5842872,
      "componentType": 5126,
      "count": 65532,
      "max": [
        1.0,
        1.0,
        1.0
      ],
      "min": [
        -1.0,
        -1.0,
        -1.0
      ],
      "type": "VEC3"
    },
    {
      "bufferView": 0,
      "byteOffset": 5038080,
      "componentType": 5125,
      "count": 391770,
      "type": "SCALAR"
    },
    {
      "bufferView": 1,
      "byteOffset": 6629256,
      "componentType": 5126,
      "count": 6481,
      "max": [
        -10.406561851501465,
        0.7268071174621582,
        15.121999740600586
      ],
      "min": [
        -30.194000244140625,
        -21.019001007080078,
        -13.448999404907227
      ],
      "type": "VEC3"
    },
    {
      "bufferView": 1,
      "byteOffset": 6707028,
      "componentType": 5126,
      "count": 6481,
      "max": [
        1.0,
        1.0,
        1.0
      ],
      "min": [
        -1.0,
        -1.0,
        -1.0
      ],
      "type": "VEC3"
    },
    {
      "bufferView": 0,
      "byteOffset": 6605160,
      "componentType": 5125,
      "count": 38310,
      "type": "SCALAR"
    },
    {
      "bufferView": 1,
      "byteOffset": 6784800,
      "componentType": 5126,
      "count": 3852,
      "max": [
        -10.208999633789063,
        -3.5929999351501465,
        8.458999633789063
      ],
      "min": [
        -30.354999542236328,
        -14.907999992370605,
        -5.187000274658203
      ],
      "type": "VEC3"
    },
    {
      "bufferView": 1,
      "byteOffset": 6831024,
      "componentType": 5126,
      "count": 3852,
      "max": [
        1.0,
        1.0,
        1.0
      ],
      "min": [
        -1.0,
        -1.0,
        -1.0
      ],
      "type": "VEC3"
    },
    {
      "bufferView": 0,
      "byteOffset": 6758400,
      "componentType": 5125,
      "count": 23040,
      "type": "SCALAR"
    }
  ],
  "asset": {
    "extras": {
      "author": "Justus Mutanen (https://sketchfab.com/justusmutanen)",
      "license": "CC-BY-4.0 (http://creativecommons.org/licenses/by/4.0/)",
      "source": "https://sketchfab.com/3d-models/insulin-9608a50e2c934ec7b7b6f89e16fac47d",
      "title": "Insulin"
    },
    "generator": "Sketchfab-12.68.0",
    "version": "2.0"
  },
  "bufferViews": [
    {
      "buffer": 0,
      "byteLength": 6850560,
      "name": "floatBufferViews",
      "target": 34963
    },
    {
      "buffer": 0,
      "byteLength": 6877248,
      "byteOffset": 6850560,
      "byteStride": 12,
      "name": "floatBufferViews",
      "target": 34962
    }
  ],
  "buffers": [
    {
      "byteLength": 13727808,
      "uri": "scene.bin"
    }
  ],
  "materials": [
    {
      "doubleSided": true,
      "name": "k3050f8",
      "pbrMetallicRoughness": {
        "baseColorFactor": [
          0.191,
          0.316,
          0.973,
          1.0
        ],
        "metallicFactor": 0.0,
        "roughnessFactor": 0.574428
      }
    },
    {
      "doubleSided": true,
      "name": "k909090",
      "pbrMetallicRoughness": {
        "baseColorFactor": [
          0.566,
          0.566,
          0.566,
          1.0
        ],
        "metallicFactor": 0.0,
        "roughnessFactor": 0.574428
      }
    },
    {
      "doubleSided": true,
      "name": "kff0d0d",
      "pbrMetallicRoughness": {
        "baseColorFactor": [
          1.0,
          0.055,
          0.055,
          1.0
        ],
        "metallicFactor": 0.0,
        "roughnessFactor": 0.574428
      }
    },
    {
      "doubleSided": true,
      "name": "kffff30",
      "pbrMetallicRoughness": {
        "baseColorFactor": [
          1.0,
          1.0,
          0.191,
          1.0
        ],
        "metallicFactor": 0.0,
        "roughnessFactor": 0.574428
      }
    }
  ],
  "meshes": [
    {
      "name": "Object_0",
      "primitives": [
        {
          "attributes": {
            "NORMAL": 1,
            "POSITION": 0
          },
          "indices": 2,
          "material": 0,
          "mode": 4
        }
      ]
    },
    {
      "name": "Object_1",
      "primitives": [
        {
          "attributes": {
            "NORMAL": 4,
            "POSITION": 3
          },
          "indices": 5,
          "material": 1,
          "mode": 4
        }
      ]
    },
    {
      "name": "Object_2",
      "primitives": [
        {
          "attributes": {
            "NORMAL": 7,
            "POSITION": 6
          },
          "indices": 8,
          "material": 1,
          "mode": 4
        }
      ]
    },
    {
      "name": "Object_3",
      "primitives": [
        {
          "attributes": {
            "NORMAL": 10,
            "POSITION": 9
          },
          "indices": 11,
          "material": 1,
          "mode": 4
        }
      ]
    },
    {
      "name": "Object_4",
      "primitives": [
        {
          "attributes": {
            "NORMAL": 13,
            "POSITION": 12
          },
          "indices": 14,
          "material": 2,
          "mode": 4
        }
      ]
    },
    {
      "name": "Object_5",
      "primitives": [
        {
          "attributes": {
            "NORMAL": 16,
            "POSITION": 15
          },
          "indices": 17,
          "material": 2,
          "mode": 4
        }
      ]
    },
    {
      "name": "Object_6",
      "primitives": [
        {
          "attributes": {
            "NORMAL": 19,
            "POSITION": 18
          },
          "indices": 20,
          "material": 3,
          "mode": 4
        }
      ]
    }
  ],
  "nodes": [
    {
      "children": [
        1
      ],
      "matrix": [
        1.0,
        0.0,
        0.0,
        0.0,
        0.0,
        2.220446049250313e-16,
        -1.0,
        0.0,
        0.0,
        1.0,
        2.220446049250313e-16,
        0.0,
        0.0,
        0.0,
        0.0,
        1.0
      ],
      "name": "Sketchfab_model"
    },
    {
      "children": [
        2
      ],
      "name": "root"
    },
    {
      "children": [
        3
      ],
      "matrix": [
        1.0,
        0.0,
        0.0,
        0.0,
        0.0,
        2.220446049250313e-16,
        1.0,
        0.0,
        0.0,
        -1.0,
        2.220446049250313e-16,
        0.0,
        0.0,
        0.0,
        0.0,
        1.0
      ],
      "name": "GLTF_SceneRootNode"
    },
    {
      "children": [
        4,
        5,
        6,
        7,
        8,
        9,
        10
      ],
      "matrix": [
        1.0,
        0.0,
        0.0,
        0.0,
        0.0,
        -1.685873969314855e-07,
        0.9999999999999858,
        0.0,
        0.0,
        -0.9999999999999858,
        -1.685873969314855e-07,
        0.0,
        0.0,
        0.0,
        0.0,
        1.0
      ],
      "name": "insulin_0"
    },
    {
      "mesh": 0,
      "name": "Object_4"
    },
    {
      "mesh": 1,
      "name": "Object_5"
    },
    {
      "mesh": 2,
      "name": "Object_6"
    },
    {
      "mesh": 3,
      "name": "Object_7"
    },
    {
      "mesh": 4,
      "name": "Object_8"
    },
    {
      "mesh": 5,
      "name": "Object_9"
    },
    {
      "mesh": 6,
      "name": "Object_10"
    }
  ],
  "scene": 0,
  "scenes": [
    {
      "name": "Sketchfab_Scene",
      "nodes": [
        0
      ]
    }
  ]
}
