{
  "accessors": [
    {
      "bufferView": 2,
      "componentType": 5126,
      "count": 593,
      "max": [
        -8.326091766357422,
        8.95553207397461,
        0.022237777709960938
      ],
      "min": [
        -18.750333786010742,
        -0.09394407272338867,
        -10.599103927612305
      ],
      "type": "VEC3"
    },
    {
      "bufferView": 2,
      "byteOffset": 7116,
      "componentType": 5126,
      "count": 593,
      "max": [
        0.9993669390678406,
        0.9985916614532471,
        0.9995149970054626
      ],
      "min": [
        -0.9993759393692017,
        -0.9991090893745422,
        -0.9995294809341431
      ],
      "type": "VEC3"
    },
    {
      "bufferView": 1,
      "componentType": 5126,
      "count": 593,
      "max": [
        0.9899999499320984,
        0.9900000095367432
      ],
      "min": [
        0.009999999776482582,
        0.14205271005630493
      ],
      "type": "VEC2"
    },
    {
      "bufferView": 1,
      "byteOffset": 4744,
      "componentType": 5126,
      "count": 593,
      "max": [
        0.9899999499320984,
        0.9900000095367432
      ],
      "min": [
        0.009999999776482582,
        0.14205271005630493
      ],
      "type": "VEC2"
    },
    {
      "bufferView": 1,
      "byteOffset": 9488,
      "componentType": 5126,
      "count": 593,
      "max": [
        0.9899999499320984,
        0.9900000095367432
      ],
      "min": [
        0.009999999776482582,
        0.14205271005630493
      ],
      "type": "VEC2"
    },
    {
      "bufferView": 1,
      "byteOffset": 14232,
      "componentType": 5126,
      "count": 593,
      "max": [
        0.9899999499320984,
        0.9900000095367432
      ],
      "min": [
        0.009999999776482582,
        0.14205271005630493
      ],
      "type": "VEC2"
    },
    {
      "bufferView": 1,
      "byteOffset": 18976,
      "componentType": 5126,
      "count": 593,
      "max": [
        0.9899999499320984,
        0.9900000095367432
      ],
      "min": [
        0.009999999776482582,
        0.14205271005630493
      ],
      "type": "VEC2"
    },
    {
      "bufferView": 1,
      "byteOffset": 23720,
      "componentType": 5126,
      "count": 593,
      "max": [
        0.9899999499320984,
        0.9900000095367432
      ],
      "min": [
        0.009999999776482582,
        0.14205271005630493
      ],
      "type": "VEC2"
    },
    {
      "bufferView": 0,
      "componentType": 5125,
      "count": 3072,
      "type": "SCALAR"
    },
    {
      "bufferView": 2,
      "byteOffset": 14232,
      "componentType": 5126,
      "count": 180,
      "max": [
        -13.24754524230957,
        9.598946571350098,
        -3.5991883277893066
      ],
      "min": [
        -13.84314250946045,
        7.498043537139893,
        -5.359526634216309
      ],
      "type": "VEC3"
    },
    {
      "bufferView": 2,
      "byteOffset": 16392,
      "componentType": 5126,
      "count": 180,
      "max": [
        0.9960340857505798,
        0.9807836413383484,
        0.9971026182174683
      ],
      "min": [
        -0.99759441614151,
        -0.8972881436347961,
        -0.956091582775116
      ],
      "type": "VEC3"
    },
    {
      "bufferView": 1,
      "byteOffset": 28464,
      "componentType": 5126,
      "count": 180,
      "max": [
        0.26237645745277405,
        0.97493577003479
      ],
      "min": [
        0.009999999776482582,
        0.3102399706840515
      ],
      "type": "VEC2"
    },
    {
      "bufferView": 1,
      "byteOffset": 29904,
      "componentType": 5126,
      "count": 180,
      "max": [
        0.26237645745277405,
        0.97493577003479
      ],
      "min": [
        0.009999999776482582,
        0.3102399706840515
      ],
      "type": "VEC2"
    },
    {
      "bufferView": 1,
      "byteOffset": 31344,
      "componentType": 5126,
      "count": 180,
      "max": [
        0.26237645745277405,
        0.97493577003479
      ],
      "min": [
        0.009999999776482582,
        0.3102399706840515
      ],
      "type": "VEC2"
    },
    {
      "bufferView": 1,
      "byteOffset": 32784,
      "componentType": 5126,
      "count": 180,
      "max": [
        0.26237645745277405,
        0.97493577003479
      ],
      "min": [
        0.009999999776482582,
        0.3102399706840515
      ],
      "type": "VEC2"
    },
    {
      "bufferView": 1,
      "byteOffset": 34224,
      "componentType": 5126,
      "count": 180,
      "max": [
        0.26237645745277405,
        0.97493577003479
      ],
      "min": [
        0.009999999776482582,
        0.3102399706840515
      ],
      "type": "VEC2"
    },
    {
      "bufferView": 1,
      "byteOffset": 35664,
      "componentType": 5126,
      "count": 180,
      "max": [
        0.26237645745277405,
        0.97493577003479
      ],
      "min": [
        0.009999999776482582,
        0.3102399706840515
      ],
      "type": "VEC2"
    },
    {
      "bufferView": 0,
      "byteOffset": 12288,
      "componentType": 5125,
      "count": 960,
      "type": "SCALAR"
    },
    {
      "bufferView": 3,
      "componentType": 5126,
      "count": 1,
      "max": [
        0.0
      ],
      "min": [
        0.0
      ],
      "type": "SCALAR"
    },
    {
      "bufferView": 4,
      "componentType": 5126,
      "count": 1,
      "max": [
        6.657902673623539e-08,
        0.0,
        0.0,
        1.0
      ],
      "min": [
        6.657902673623539e-08,
        0.0,
        0.0,
        1.0
      ],
      "type": "VEC4"
    },
    {
      "bufferView": 3,
      "byteOffset": 4,
      "componentType": 5126,
      "count": 1,
      "max": [
        0.0
      ],
      "min": [
        0.0
      ],
      "type": "SCALAR"
    },
    {
      "bufferView": 4,
      "byteOffset": 16,
      "componentType": 5126,
      "count": 1,
      "max": [
        6.657902673623539e-08,
        0.0,
        0.0,
        1.0
      ],
      "min": [
        6.657902673623539e-08,
        0.0,
        0.0,
        1.0
      ],
      "type": "VEC4"
    }
  ],
  "animations": [
    {
      "channels": [
        {
          "sampler": 0,
          "target": {
            "node": 4,
            "path": "rotation"
          }
        },
        {
          "sampler": 1,
          "target": {
            "node": 6,
            "path": "rotation"
          }
        }
      ],
      "name": "Take 001",
      "samplers": [
        {
          "input": 18,
          "interpolation": "LINEAR",
          "output": 19
        },
        {
          "input": 20,
          "interpolation": "LINEAR",
          "output": 21
        }
      ]
    }
  ],
  "asset": {
    "extras": {
      "author": "cedricmahot (https://sketchfab.com/cedricmahot)",
      "license": "CC-BY-4.0 (http://creativecommons.org/licenses/by/4.0/)",
      "source": "https://sketchfab.com/3d-models/apple-fbx-b496adbf9b924ff99939ad38330eb3cf",
      "title": "Apple FBX"
    },
    "generator": "Sketchfab-12.66.0",
    "version": "2.0"
  },
  "bufferViews": [
    {
      "buffer": 0,
      "byteLength": 16128,
      "name": "floatBufferViews",
      "target": 34963
    },
    {
      "buffer": 0,
      "byteLength": 37104,
      "byteOffset": 16128,
      "byteStride": 8,
      "name": "floatBufferViews",
      "target": 34962
    },
    {
      "buffer": 0,
      "byteLength": 18552,
      "byteOffset": 53232,
      "byteStride": 12,
      "name": "floatBufferViews",
      "target": 34962
    },
    {
      "buffer": 0,
      "byteLength": 8,
      "byteOffset": 71784,
      "name": "floatBufferViews"
    },
    {
      "buffer": 0,
      "byteLength": 32,
      "byteOffset": 71792,
      "byteStride": 16,
      "name": "floatBufferViews"
    }
  ],
  "buffers": [
    {
      "byteLength": 71824,
      "uri": "scene.bin"
    }
  ],
  "images": [
    {
      "uri": "textures/Material_25_baseColor.jpeg"
    },
    {
      "uri": "textures/Material_25_metallicRoughness.png"
    }
  ],
  "materials": [
    {
      "doubleSided": true,
      "name": "Material_25",
      "pbrMetallicRoughness": {
        "baseColorTexture": {
          "index": 0
        },
        "metallicFactor": 0.0,
        "metallicRoughnessTexture": {
          "index": 1
        }
      }
    }
  ],
  "meshes": [
    {
      "name": "Sphere07_Material #25_0",
      "primitives": [
        {
          "attributes": {
            "NORMAL": 1,
            "POSITION": 0,
            "TEXCOORD_0": 2,
            "TEXCOORD_1": 3,
            "TEXCOORD_2": 4,
            "TEXCOORD_3": 5,
            "TEXCOORD_4": 6,
            "TEXCOORD_5": 7
          },
          "indices": 8,
          "material": 0,
          "mode": 4
        }
      ]
    },
    {
      "name": "Cylinder05_Material #25_0",
      "primitives": [
        {
          "attributes": {
            "NORMAL": 10,
            "POSITION": 9,
            "TEXCOORD_0": 11,
            "TEXCOORD_1": 12,
            "TEXCOORD_2": 13,
            "TEXCOORD_3": 14,
            "TEXCOORD_4": 15,
            "TEXCOORD_5": 16
          },
          "indices": 17,
          "material": 0,
          "mode": 4
        }
      ]
    }
  ],
  "nodes": [
    {
      "children": [
        1
      ],
      "matrix": [
        0.01673169434070587,
        0.0,
        0.0,
        0.0,
        0.0,
        3.7151824596084174e-18,
        -0.01673169434070587,
        0.0,
        0.0,
        0.01673169434070587,
        3.7151824596084174e-18,
        0.0,
        0.0,
        0.0,
        0.0,
        1.0
      ],
      "name": "Sketchfab_model"
    },
    {
      "children": [
        2
      ],
      "matrix": [
        1.0,
        0.0,
        0.0,
        0.0,
        0.0,
        0.0,
        1.0,
        0.0,
        0.0,
        -1.0,
        0.0,
        0.0,
        0.0,
        0.0,
        0.0,
        1.0
      ],
      "name": "9e90dc251b804b5abec43536bb0cddcb.fbx"
    },
    {
      "children": [
        3
      ],
      "name": "Object_2"
    },
    {
      "children": [
        4,
        6
      ],
      "name": "RootNode"
    },
    {
      "children": [
        5
      ],
      "name": "Sphere07",
      "rotation": [
        8.146034247147327e-08,
        0.0,
        0.0,
        1.0
      ],
      "translation": [
        3.858856201171875,
        0.0,
        -4.234792709350586
      ]
    },
    {
      "mesh": 0,
      "name": "Sphere07_Material #25_0"
    },
    {
      "children": [
        7
      ],
      "name": "Cylinder05",
      "rotation": [
        8.146034247147327e-08,
        0.0,
        0.0,
        1.0
      ],
      "translation": [
        3.858856201171875,
        0.0,
        -4.234792709350586
      ]
    },
    {
      "mesh": 1,
      "name": "Cylinder05_Material #25_0"
    }
  ],
  "samplers": [
    {
      "magFilter": 9729,
      "minFilter": 9987,
      "wrapS": 10497,
      "wrapT": 10497
    }
  ],
  "scene": 0,
  "scenes": [
    {
      "name": "Sketchfab_Scene",
      "nodes": [
        0
      ]
    }
  ],
  "textures": [
    {
      "sampler": 0,
      "source": 0
    },
    {
      "sampler": 0,
      "source": 1
    }
  ]
}
