{
  "accessors": [
    {
      "bufferView": 2,
      "componentType": 5126,
      "count": 1437,
      "max": [
        1.763612151145935,
        4.740512371063232,
        0.6783607602119446
      ],
      "min": [
        -1.7664331197738647,
        0.007588624954223633,
        -0.44063282012939453
      ],
      "type": "VEC3"
    },
    {
      "bufferView": 2,
      "byteOffset": 17244,
      "componentType": 5126,
      "count": 1437,
      "max": [
        0.9997175335884094,
        0.9986813068389893,
        0.9999988079071045
      ],
      "min": [
        -0.9997175335884094,
        -0.9991783499717712,
        -0.9998421669006348
      ],
      "type": "VEC3"
    },
    {
      "bufferView": 3,
      "componentType": 5126,
      "count": 1437,
      "max": [
        0.9997196793556213,
        0.9998422265052795,
        0.9992492198944092,
        1.0
      ],
      "min": [
        -0.9997196793556213,
        -0.9999988079071045,
        -0.999921441078186,
        -1.0
      ],
      "type": "VEC4"
    },
    {
      "bufferView": 1,
      "componentType": 5126,
      "count": 1437,
      "max": [
        0.9968582987785339,
        0.9979910850524902
      ],
      "min": [
        0.005062561482191086,
        0.0054280757904052734
      ],
      "type": "VEC2"
    },
    {
      "bufferView": 1,
      "byteOffset": 11496,
      "componentType": 5126,
      "count": 1437,
      "max": [
        0.9968582987785339,
        0.9979910850524902
      ],
      "min": [
        0.005062561482191086,
        0.0054280757904052734
      ],
      "type": "VEC2"
    },
    {
      "bufferView": 1,
      "byteOffset": 22992,
      "componentType": 5126,
      "count": 1437,
      "max": [
        0.9968582987785339,
        0.9979910850524902
      ],
      "min": [
        0.005062561482191086,
        0.0054280757904052734
      ],
      "type": "VEC2"
    },
    {
      "bufferView": 1,
      "byteOffset": 34488,
      "componentType": 5126,
      "count": 1437,
      "max": [
        0.9968582987785339,
        0.9979910850524902
      ],
      "min": [
        0.005062561482191086,
        0.0054280757904052734
      ],
      "type": "VEC2"
    },
    {
      "bufferView": 1,
      "byteOffset": 45984,
      "componentType": 5126,
      "count": 1437,
      "max": [
        0.9968582987785339,
        0.9979910850524902
      ],
      "min": [
        0.005062561482191086,
        0.0054280757904052734
      ],
      "type": "VEC2"
    },
    {
      "bufferView": 0,
      "componentType": 5125,
      "count": 5994,
      "type": "SCALAR"
    }
  ],
  "asset": {
    "extras": {
      "author": "Hadley.osh (https://sketchfab.com/vulturefly)",
      "license": "CC-BY-4.0 (http://creativecommons.org/licenses/by/4.0/)",
      "source": "https://sketchfab.com/3d-models/trump-232b8a7d4a694df5a0af9f0efe03cedc",
      "title": "Trump"
    },
    "generator": "Sketchfab-12.65.0",
    "version": "2.0"
  },
  "bufferViews": [
    {
      "buffer": 0,
      "byteLength": 23976,
      "name": "floatBufferViews",
      "target": 34963
    },
    {
      "buffer": 0,
      "byteLength": 57480,
      "byteOffset": 23976,
      "byteStride": 8,
      "name": "floatBufferViews",
      "target": 34962
    },
    {
      "buffer": 0,
      "byteLength": 34488,
      "byteOffset": 81456,
      "byteStride": 12,
      "name": "floatBufferViews",
      "target": 34962
    },
    {
      "buffer": 0,
      "byteLength": 22992,
      "byteOffset": 115944,
      "byteStride": 16,
      "name": "floatBufferViews",
      "target": 34962
    }
  ],
  "buffers": [
    {
      "byteLength": 138936,
      "uri": "scene.bin"
    }
  ],
  "extensionsRequired": [
    "KHR_materials_pbrSpecularGlossiness"
  ],
  "extensionsUsed": [
    "KHR_materials_pbrSpecularGlossiness"
  ],
  "images": [
    {
      "uri": "textures/Trump_Mat_diffuse.png"
    },
    {
      "uri": "textures/Trump_Mat_specularGlossiness.png"
    },
    {
      "uri": "textures/Trump_Mat_normal.png"
    }
  ],
  "materials": [
    {
      "doubleSided": true,
      "extensions": {
        "KHR_materials_pbrSpecularGlossiness": {
          "diffuseFactor": [
            1.0,
            1.0,
            1.0,
            1.0
          ],
          "diffuseTexture": {
            "index": 0
          },
          "glossinessFactor": 1.0,
          "specularFactor": [
            0.0,
            0.0,
            0.0
          ],
          "specularGlossinessTexture": {
            "index": 1
          }
        }
      },
      "name": "Trump_Mat",
      "normalTexture": {
        "index": 2
      }
    }
  ],
  "meshes": [
    {
      "name": "Suit_Trump_Mat_0",
      "primitives": [
        {
          "attributes": {
            "NORMAL": 1,
            "POSITION": 0,
            "TANGENT": 2,
            "TEXCOORD_0": 3,
            "TEXCOORD_1": 4,
            "TEXCOORD_2": 5,
            "TEXCOORD_3": 6,
            "TEXCOORD_4": 7
          },
          "indices": 8,
          "material": 0,
          "mode": 4
        }
      ]
    }
  ],
  "nodes": [
    {
      "children": [
        1
      ],
      "matrix": [
        1.0,
        0.0,
        0.0,
        0.0,
        0.0,
        2.220446049250313e-16,
        -1.0,
        0.0,
        0.0,
        1.0,
        2.220446049250313e-16,
        0.0,
        0.0,
        0.0,
        0.0,
        1.0
      ],
      "name": "Sketchfab_model"
    },
    {
      "children": [
        2
      ],
      "matrix": [
        1.0,
        0.0,
        0.0,
        0.0,
        0.0,
        0.0,
        1.0,
        0.0,
        0.0,
        -1.0,
        0.0,
        0.0,
        0.0,
        0.0,
        0.0,
        1.0
      ],
      "name": "d2b2e937dda040538862340227115adc.fbx"
    },
    {
      "children": [
        3
      ],
      "name": "RootNode"
    },
    {
      "children": [
        4
      ],
      "name": "Suit"
    },
    {
      "mesh": 0,
      "name": "Suit_Trump_Mat_0"
    }
  ],
  "samplers": [
    {
      "magFilter": 9729,
      "minFilter": 9987,
      "wrapS": 10497,
      "wrapT": 10497
    }
  ],
  "scene": 0,
  "scenes": [
    {
      "name": "Sketchfab_Scene",
      "nodes": [
        0
      ]
    }
  ],
  "textures": [
    {
      "sampler": 0,
      "source": 0
    },
    {
      "sampler": 0,
      "source": 1
    },
    {
      "sampler": 0,
      "source": 2
    }
  ]
}
