{
  "accessors": [
    {
      "bufferView": 1,
      "componentType": 5126,
      "count": 65532,
      "max": [
        2.068459987640381,
        2.066270112991333,
        5.937930107116699
      ],
      "min": [
        -2.039479970932007,
        -2.0571799278259277,
        1.8987400531768799
      ],
      "type": "VEC3"
    },
    {
      "bufferView": 1,
      "byteOffset": 786384,
      "componentType": 5126,
      "count": 65532,
      "max": [
        1.0,
        1.0,
        1.0
      ],
      "min": [
        -1.0,
        -1.0,
        -1.0
      ],
      "type": "VEC3"
    },
    {
      "bufferView": 0,
      "componentType": 5125,
      "count": 227475,
      "type": "SCALAR"
    },
    {
      "bufferView": 1,
      "byteOffset": 1572768,
      "componentType": 5126,
      "count": 65533,
      "max": [
        2.126569986343384,
        2.126569986343384,
        13.687800407409668
      ],
      "min": [
        -2.126569986343384,
        -2.126569986343384,
        1.6867300271987915
      ],
      "type": "VEC3"
    },
    {
      "bufferView": 1,
      "byteOffset": 2359164,
      "componentType": 5126,
      "count": 65533,
      "max": [
        1.0,
        1.0,
        1.0
      ],
      "min": [
        -1.0,
        -1.0,
        -1.0
      ],
      "type": "VEC3"
    },
    {
      "bufferView": 0,
      "byteOffset": 909900,
      "componentType": 5125,
      "count": 184122,
      "type": "SCALAR"
    },
    {
      "bufferView": 1,
      "byteOffset": 3145560,
      "componentType": 5126,
      "count": 65533,
      "max": [
        2.004650115966797,
        2.0056800842285156,
        15.632369995117188
      ],
      "min": [
        -2.078000068664551,
        -2.126569986343384,
        1.6867300271987915
      ],
      "type": "VEC3"
    },
    {
      "bufferView": 1,
      "byteOffset": 3931956,
      "componentType": 5126,
      "count": 65533,
      "max": [
        1.0,
        1.0,
        1.0
      ],
      "min": [
        -1.0,
        -1.0,
        -1.0
      ],
      "type": "VEC3"
    },
    {
      "bufferView": 0,
      "byteOffset": 1646388,
      "componentType": 5125,
      "count": 196158,
      "type": "SCALAR"
    },
    {
      "bufferView": 1,
      "byteOffset": 4718352,
      "componentType": 5126,
      "count": 65534,
      "max": [
        2.126569986343384,
        2.1545000076293945,
        15.630240440368652
      ],
      "min": [
        -2.985340118408203,
        -2.154510021209717,
        -0.002739999908953905
      ],
      "type": "VEC3"
    },
    {
      "bufferView": 1,
      "byteOffset": 5504760,
      "componentType": 5126,
      "count": 65534,
      "max": [
        1.0,
        1.0,
        1.0
      ],
      "min": [
        -1.0,
        -1.0,
        -1.0
      ],
      "type": "VEC3"
    },
    {
      "bufferView": 0,
      "byteOffset": 2431020,
      "componentType": 5125,
      "count": 148434,
      "type": "SCALAR"
    },
    {
      "bufferView": 1,
      "byteOffset": 6291168,
      "componentType": 5126,
      "count": 65532,
      "max": [
        3.065229892730713,
        3.0164999961853027,
        15.258509635925293
      ],
      "min": [
        -3.065229892730713,
        -3.0164999961853027,
        -0.02718999981880188
      ],
      "type": "VEC3"
    },
    {
      "bufferView": 1,
      "byteOffset": 7077552,
      "componentType": 5126,
      "count": 65532,
      "max": [
        1.0,
        1.0,
        1.0
      ],
      "min": [
        -1.0,
        -1.0,
        -1.0
      ],
      "type": "VEC3"
    },
    {
      "bufferView": 0,
      "byteOffset": 3024756,
      "componentType": 5125,
      "count": 188127,
      "type": "SCALAR"
    },
    {
      "bufferView": 1,
      "byteOffset": 7863936,
      "componentType": 5126,
      "count": 65532,
      "max": [
        3.0425100326538086,
        2.985340118408203,
        15.264969825744629
      ],
      "min": [
        -2.9961800575256348,
        -2.985340118408203,
        -0.002749999985098839
      ],
      "type": "VEC3"
    },
    {
      "bufferView": 1,
      "byteOffset": 8650320,
      "componentType": 5126,
      "count": 65532,
      "max": [
        1.0,
        1.0,
        1.0
      ],
      "min": [
        -1.0,
        -1.0,
        -1.0
      ],
      "type": "VEC3"
    },
    {
      "bufferView": 0,
      "byteOffset": 3777264,
      "componentType": 5125,
      "count": 194331,
      "type": "SCALAR"
    },
    {
      "bufferView": 1,
      "byteOffset": 9436704,
      "componentType": 5126,
      "count": 65532,
      "max": [
        2.985340118408203,
        2.985340118408203,
        15.365670204162598
      ],
      "min": [
        -2.285409927368164,
        -2.985340118408203,
        -0.002749999985098839
      ],
      "type": "VEC3"
    },
    {
      "bufferView": 1,
      "byteOffset": 10223088,
      "componentType": 5126,
      "count": 65532,
      "max": [
        1.0,
        1.0,
        1.0
      ],
      "min": [
        -1.0,
        -1.0,
        -1.0
      ],
      "type": "VEC3"
    },
    {
      "bufferView": 0,
      "byteOffset": 4554588,
      "componentType": 5125,
      "count": 142227,
      "type": "SCALAR"
    },
    {
      "bufferView": 1,
      "byteOffset": 11009472,
      "componentType": 5126,
      "count": 30828,
      "max": [
        2.1545000076293945,
        2.985340118408203,
        1.9498399496078491
      ],
      "min": [
        -2.371769905090332,
        -0.005919999908655882,
        -0.002739999908953905
      ],
      "type": "VEC3"
    },
    {
      "bufferView": 1,
      "byteOffset": 11379408,
      "componentType": 5126,
      "count": 30828,
      "max": [
        1.0,
        1.0,
        0.9079417586326599
      ],
      "min": [
        -1.0,
        -0.9999231100082397,
        -0.9078242778778076
      ],
      "type": "VEC3"
    },
    {
      "bufferView": 0,
      "byteOffset": 5123496,
      "componentType": 5125,
      "count": 68205,
      "type": "SCALAR"
    },
    {
      "bufferView": 1,
      "byteOffset": 11749344,
      "componentType": 5126,
      "count": 1580,
      "max": [
        3.3619399070739746,
        3.311389923095703,
        4.905980110168457
      ],
      "min": [
        -3.3619399070739746,
        -3.311389923095703,
        -0.2953999936580658
      ],
      "type": "VEC3"
    },
    {
      "bufferView": 1,
      "byteOffset": 11768304,
      "componentType": 5126,
      "count": 1580,
      "max": [
        1.0,
        1.0,
        0.9982167482376099
      ],
      "min": [
        -1.0,
        -1.0,
        -1.0
      ],
      "type": "VEC3"
    },
    {
      "bufferView": 0,
      "byteOffset": 5396316,
      "componentType": 5125,
      "count": 3600,
      "type": "SCALAR"
    },
    {
      "bufferView": 1,
      "byteOffset": 11787264,
      "componentType": 5126,
      "count": 5330,
      "max": [
        1.996899962425232,
        1.997879981994629,
        14.164950370788574
      ],
      "min": [
        -1.9681099653244019,
        -1.9856599569320679,
        2.561769962310791
      ],
      "type": "VEC3"
    },
    {
      "bufferView": 1,
      "byteOffset": 11851224,
      "componentType": 5126,
      "count": 5330,
      "max": [
        1.0,
        1.0,
        0.8140022158622742
      ],
      "min": [
        -1.0,
        -1.0,
        -0.8254764676094055
      ],
      "type": "VEC3"
    },
    {
      "bufferView": 0,
      "byteOffset": 5410716,
      "componentType": 5125,
      "count": 7512,
      "type": "SCALAR"
    }
  ],
  "asset": {
    "extras": {
      "author": "Johnson Martin (https://sketchfab.com/Johnson-Martin)",
      "license": "CC-BY-4.0 (http://creativecommons.org/licenses/by/4.0/)",
      "source": "https://sketchfab.com/3d-models/eiffel-tower-6830e60d2c1048f2a33e92679664f652",
      "title": "Eiffel Tower"
    },
    "generator": "Sketchfab-12.68.0",
    "version": "2.0"
  },
  "bufferViews": [
    {
      "buffer": 0,
      "byteLength": 5440764,
      "name": "floatBufferViews",
      "target": 34963
    },
    {
      "buffer": 0,
      "byteLength": 11915184,
      "byteOffset": 5440764,
      "byteStride": 12,
      "name": "floatBufferViews",
      "target": 34962
    }
  ],
  "buffers": [
    {
      "byteLength": 17355948,
      "uri": "scene.bin"
    }
  ],
  "extensionsRequired": [
    "KHR_materials_pbrSpecularGlossiness"
  ],
  "extensionsUsed": [
    "KHR_materials_pbrSpecularGlossiness"
  ],
  "materials": [
    {
      "extensions": {
        "KHR_materials_pbrSpecularGlossiness": {
          "diffuseFactor": [
            1.0,
            1.0,
            1.0,
            1.0
          ],
          "glossinessFactor": 0.7999999970197678,
          "specularFactor": [
            0.800000011920929,
            0.800000011920929,
            0.800000011920929
          ]
        }
      },
      "name": "Main"
    },
    {
      "extensions": {
        "KHR_materials_pbrSpecularGlossiness": {
          "diffuseFactor": [
            1.0,
            1.0,
            1.0,
            1.0
          ],
          "glossinessFactor": 0.7003614662945601,
          "specularFactor": [
            1.0,
            1.0,
            1.0
          ]
        }
      },
      "name": "Material.001"
    },
    {
      "alphaMode": "BLEND",
      "doubleSided": true,
      "extensions": {
        "KHR_materials_pbrSpecularGlossiness": {
          "diffuseFactor": [
            1.0,
            1.0,
            1.0,
            0.5120000228881839
          ],
          "glossinessFactor": 1.0,
          "specularFactor": [
            0.800000011920929,
            0.800000011920929,
            0.800000011920929
          ]
        }
      },
      "name": "Material.002"
    }
  ],
  "meshes": [
    {
      "name": "Eiffel-Tower_0",
      "primitives": [
        {
          "attributes": {
            "NORMAL": 1,
            "POSITION": 0
          },
          "indices": 2,
          "material": 0,
          "mode": 4
        }
      ]
    },
    {
      "name": "Eiffel-Tower_0",
      "primitives": [
        {
          "attributes": {
            "NORMAL": 4,
            "POSITION": 3
          },
          "indices": 5,
          "material": 0,
          "mode": 4
        }
      ]
    },
    {
      "name": "Eiffel-Tower_0",
      "primitives": [
        {
          "attributes": {
            "NORMAL": 7,
            "POSITION": 6
          },
          "indices": 8,
          "material": 0,
          "mode": 4
        }
      ]
    },
    {
      "name": "Eiffel-Tower_0",
      "primitives": [
        {
          "attributes": {
            "NORMAL": 10,
            "POSITION": 9
          },
          "indices": 11,
          "material": 0,
          "mode": 4
        }
      ]
    },
    {
      "name": "Eiffel-Tower_0",
      "primitives": [
        {
          "attributes": {
            "NORMAL": 13,
            "POSITION": 12
          },
          "indices": 14,
          "material": 0,
          "mode": 4
        }
      ]
    },
    {
      "name": "Eiffel-Tower_0",
      "primitives": [
        {
          "attributes": {
            "NORMAL": 16,
            "POSITION": 15
          },
          "indices": 17,
          "material": 0,
          "mode": 4
        }
      ]
    },
    {
      "name": "Eiffel-Tower_0",
      "primitives": [
        {
          "attributes": {
            "NORMAL": 19,
            "POSITION": 18
          },
          "indices": 20,
          "material": 0,
          "mode": 4
        }
      ]
    },
    {
      "name": "Eiffel-Tower_0",
      "primitives": [
        {
          "attributes": {
            "NORMAL": 22,
            "POSITION": 21
          },
          "indices": 23,
          "material": 0,
          "mode": 4
        }
      ]
    },
    {
      "name": "Eiffel-Tower_1",
      "primitives": [
        {
          "attributes": {
            "NORMAL": 25,
            "POSITION": 24
          },
          "indices": 26,
          "material": 1,
          "mode": 4
        }
      ]
    },
    {
      "name": "Eiffel-Tower_2",
      "primitives": [
        {
          "attributes": {
            "NORMAL": 28,
            "POSITION": 27
          },
          "indices": 29,
          "material": 2,
          "mode": 4
        }
      ]
    }
  ],
  "nodes": [
    {
      "children": [
        1
      ],
      "matrix": [
        1.0,
        0.0,
        0.0,
        0.0,
        0.0,
        2.220446049250313e-16,
        -1.0,
        0.0,
        0.0,
        1.0,
        2.220446049250313e-16,
        0.0,
        0.0,
        0.0,
        0.0,
        1.0
      ],
      "name": "Sketchfab_model"
    },
    {
      "children": [
        2
      ],
      "name": "Root"
    },
    {
      "children": [
        3,
        4,
        5,
        6,
        7,
        8,
        9,
        10,
        11,
        12
      ],
      "matrix": [
        1.0,
        0.0,
        0.0,
        0.0,
        0.0,
        1.0,
        0.0,
        0.0,
        0.0,
        0.0,
        1.0,
        0.0,
        8.000000000000003e-05,
        -2.000000000000001e-05,
        0.30223,
        1.0
      ],
      "name": "Eiffel-Tower"
    },
    {
      "mesh": 0,
      "name": "Eiffel-Tower_0"
    },
    {
      "mesh": 1,
      "name": "Eiffel-Tower_0"
    },
    {
      "mesh": 2,
      "name": "Eiffel-Tower_0"
    },
    {
      "mesh": 3,
      "name": "Eiffel-Tower_0"
    },
    {
      "mesh": 4,
      "name": "Eiffel-Tower_0"
    },
    {
      "mesh": 5,
      "name": "Eiffel-Tower_0"
    },
    {
      "mesh": 6,
      "name": "Eiffel-Tower_0"
    },
    {
      "mesh": 7,
      "name": "Eiffel-Tower_0"
    },
    {
      "mesh": 8,
      "name": "Eiffel-Tower_1"
    },
    {
      "mesh": 9,
      "name": "Eiffel-Tower_2"
    }
  ],
  "scene": 0,
  "scenes": [
    {
      "name": "Sketchfab_Scene",
      "nodes": [
        0
      ]
    }
  ]
}
