{
  "accessors": [
    {
      "bufferView": 2,
      "componentType": 5126,
      "count": 2611,
      "max": [
        12.714229583740234,
        -47.7755241394043,
        3.9783620834350586
      ],
      "min": [
        -16.44764518737793,
        -48.70173645019531,
        -0.05644199997186661
      ],
      "type": "VEC3"
    },
    {
      "bufferView": 2,
      "byteOffset": 31332,
      "componentType": 5126,
      "count": 2611,
      "max": [
        1.0,
        1.0,
        1.0
      ],
      "min": [
        -1.0,
        -1.0,
        -1.0
      ],
      "type": "VEC3"
    },
    {
      "bufferView": 1,
      "componentType": 5126,
      "count": 2611,
      "max": [
        0.9872360229492188,
        0.9980080127716064
      ],
      "min": [
        0.0019710001070052385,
        0.0019920000340789557
      ],
      "type": "VEC2"
    },
    {
      "bufferView": 0,
      "componentType": 5125,
      "count": 7968,
      "type": "SCALAR"
    },
    {
      "bufferView": 2,
      "byteOffset": 62664,
      "componentType": 5126,
      "count": 830,
      "max": [
        16.5,
        16.5,
        25.990291595458984
      ],
      "min": [
        -16.5,
        -16.5,
        0.9902909994125366
      ],
      "type": "VEC3"
    },
    {
      "bufferView": 2,
      "byteOffset": 72624,
      "componentType": 5126,
      "count": 830,
      "max": [
        1.0,
        1.0,
        1.0
      ],
      "min": [
        -1.0,
        -1.0,
        -1.0
      ],
      "type": "VEC3"
    },
    {
      "bufferView": 1,
      "byteOffset": 20888,
      "componentType": 5126,
      "count": 830,
      "max": [
        0.875,
        1.0
      ],
      "min": [
        0.125,
        0.0
      ],
      "type": "VEC2"
    },
    {
      "bufferView": 0,
      "byteOffset": 31872,
      "componentType": 5125,
      "count": 1881,
      "type": "SCALAR"
    },
    {
      "bufferView": 2,
      "byteOffset": 82584,
      "componentType": 5126,
      "count": 9664,
      "max": [
        40.87931823730469,
        40.911399841308594,
        53.07284164428711
      ],
      "min": [
        -41.176631927490234,
        -41.120628356933594,
        -0.09665200114250183
      ],
      "type": "VEC3"
    },
    {
      "bufferView": 2,
      "byteOffset": 198552,
      "componentType": 5126,
      "count": 9664,
      "max": [
        1.0,
        1.0,
        1.0
      ],
      "min": [
        -1.0,
        -1.0,
        -1.0
      ],
      "type": "VEC3"
    },
    {
      "bufferView": 1,
      "byteOffset": 27528,
      "componentType": 5126,
      "count": 9664,
      "max": [
        1.0,
        1.0
      ],
      "min": [
        0.0,
        -0.0
      ],
      "type": "VEC2"
    },
    {
      "bufferView": 0,
      "byteOffset": 39396,
      "componentType": 5125,
      "count": 44949,
      "type": "SCALAR"
    },
    {
      "bufferView": 2,
      "byteOffset": 314520,
      "componentType": 5126,
      "count": 9807,
      "max": [
        40.87931823730469,
        40.911399841308594,
        37.52693176269531
      ],
      "min": [
        -41.176631927490234,
        -41.120628356933594,
        -0.09665200114250183
      ],
      "type": "VEC3"
    },
    {
      "bufferView": 2,
      "byteOffset": 432204,
      "componentType": 5126,
      "count": 9807,
      "max": [
        1.0,
        1.0,
        1.0
      ],
      "min": [
        -1.0,
        -1.0,
        -1.0
      ],
      "type": "VEC3"
    },
    {
      "bufferView": 1,
      "byteOffset": 104840,
      "componentType": 5126,
      "count": 9807,
      "max": [
        1.0,
        1.0
      ],
      "min": [
        0.0,
        -0.0
      ],
      "type": "VEC2"
    },
    {
      "bufferView": 0,
      "byteOffset": 219192,
      "componentType": 5125,
      "count": 44610,
      "type": "SCALAR"
    },
    {
      "bufferView": 2,
      "byteOffset": 549888,
      "componentType": 5126,
      "count": 2876,
      "max": [
        40.23687744140625,
        40.079044342041016,
        52.797515869140625
      ],
      "min": [
        -40.4016227722168,
        -40.17325210571289,
        0.9902909994125366
      ],
      "type": "VEC3"
    },
    {
      "bufferView": 2,
      "byteOffset": 584400,
      "componentType": 5126,
      "count": 2876,
      "max": [
        1.0,
        1.0,
        1.0
      ],
      "min": [
        -1.0,
        -1.0,
        -1.0
      ],
      "type": "VEC3"
    },
    {
      "bufferView": 1,
      "byteOffset": 183296,
      "componentType": 5126,
      "count": 2876,
      "max": [
        0.875,
        1.0
      ],
      "min": [
        0.125,
        0.0
      ],
      "type": "VEC2"
    },
    {
      "bufferView": 0,
      "byteOffset": 397632,
      "componentType": 5125,
      "count": 8124,
      "type": "SCALAR"
    }
  ],
  "asset": {
    "extras": {
      "author": "MattParson (https://sketchfab.com/MattParson)",
      "license": "CC-BY-4.0 (http://creativecommons.org/licenses/by/4.0/)",
      "source": "https://sketchfab.com/3d-models/taj-mahal-cc3388822f004d9b9b9166f2ee8385db",
      "title": "Taj Mahal"
    },
    "generator": "Sketchfab-12.67.0",
    "version": "2.0"
  },
  "bufferViews": [
    {
      "buffer": 0,
      "byteLength": 430128,
      "name": "floatBufferViews",
      "target": 34963
    },
    {
      "buffer": 0,
      "byteLength": 206304,
      "byteOffset": 430128,
      "byteStride": 8,
      "name": "floatBufferViews",
      "target": 34962
    },
    {
      "buffer": 0,
      "byteLength": 618912,
      "byteOffset": 636432,
      "byteStride": 12,
      "name": "floatBufferViews",
      "target": 34962
    }
  ],
  "buffers": [
    {
      "byteLength": 1255344,
      "uri": "scene.bin"
    }
  ],
  "materials": [
    {
      "doubleSided": true,
      "name": "D_SignaturetypeBlinnSG",
      "pbrMetallicRoughness": {
        "metallicFactor": 0.0,
        "roughnessFactor": 0.6
      }
    },
    {
      "doubleSided": true,
      "name": "initialShadingGroup",
      "pbrMetallicRoughness": {
        "metallicFactor": 0.0,
        "roughnessFactor": 0.6
      }
    }
  ],
  "meshes": [
    {
      "name": "Object_0",
      "primitives": [
        {
          "attributes": {
            "NORMAL": 1,
            "POSITION": 0,
            "TEXCOORD_0": 2
          },
          "indices": 3,
          "material": 0,
          "mode": 4
        }
      ]
    },
    {
      "name": "Object_1",
      "primitives": [
        {
          "attributes": {
            "NORMAL": 5,
            "POSITION": 4,
            "TEXCOORD_0": 6
          },
          "indices": 7,
          "material": 1,
          "mode": 4
        }
      ]
    },
    {
      "name": "Object_2",
      "primitives": [
        {
          "attributes": {
            "NORMAL": 9,
            "POSITION": 8,
            "TEXCOORD_0": 10
          },
          "indices": 11,
          "material": 1,
          "mode": 4
        }
      ]
    },
    {
      "name": "Object_3",
      "primitives": [
        {
          "attributes": {
            "NORMAL": 13,
            "POSITION": 12,
            "TEXCOORD_0": 14
          },
          "indices": 15,
          "material": 1,
          "mode": 4
        }
      ]
    },
    {
      "name": "Object_4",
      "primitives": [
        {
          "attributes": {
            "NORMAL": 17,
            "POSITION": 16,
            "TEXCOORD_0": 18
          },
          "indices": 19,
          "material": 1,
          "mode": 4
        }
      ]
    }
  ],
  "nodes": [
    {
      "children": [
        1
      ],
      "matrix": [
        1.0,
        0.0,
        0.0,
        0.0,
        0.0,
        2.220446049250313e-16,
        -1.0,
        0.0,
        0.0,
        1.0,
        2.220446049250313e-16,
        0.0,
        0.0,
        0.0,
        0.0,
        1.0
      ],
      "name": "Sketchfab_model"
    },
    {
      "children": [
        2,
        3,
        4,
        5,
        6
      ],
      "name": "Taj Mahal.obj.cleaner.materialmerger.gles"
    },
    {
      "mesh": 0,
      "name": "Object_2"
    },
    {
      "mesh": 1,
      "name": "Object_3"
    },
    {
      "mesh": 2,
      "name": "Object_4"
    },
    {
      "mesh": 3,
      "name": "Object_5"
    },
    {
      "mesh": 4,
      "name": "Object_6"
    }
  ],
  "scene": 0,
  "scenes": [
    {
      "name": "Sketchfab_Scene",
      "nodes": [
        0
      ]
    }
  ]
}
